<svg width="420" height="109" viewBox="0 0 420 109" fill="none" xmlns="http://www.w3.org/2000/svg">
<path d="M148.844 44.1172V57.5703H155.57C156.492 57.5703 157.359 57.3984 158.172 57.0547C158.984 56.6953 159.695 56.2109 160.305 55.6016C160.914 54.9922 161.391 54.2812 161.734 53.4688C162.094 52.6406 162.273 51.7656 162.273 50.8438C162.273 49.9219 162.094 49.0547 161.734 48.2422C161.391 47.4141 160.914 46.6953 160.305 46.0859C159.695 45.4766 158.984 45 158.172 44.6562C157.359 44.2969 156.492 44.1172 155.57 44.1172H148.844ZM148.844 71H142.117V37.3906H155.57C156.805 37.3906 157.992 37.5547 159.133 37.8828C160.273 38.1953 161.336 38.6484 162.32 39.2422C163.32 39.8203 164.227 40.5234 165.039 41.3516C165.867 42.1641 166.57 43.0703 167.148 44.0703C167.742 45.0703 168.195 46.1406 168.508 47.2812C168.836 48.4219 169 49.6094 169 50.8438C169 52 168.852 53.125 168.555 54.2188C168.273 55.3125 167.859 56.3516 167.312 57.3359C166.781 58.3203 166.125 59.2266 165.344 60.0547C164.562 60.8828 163.688 61.6016 162.719 62.2109L166.445 71H159.297L156.367 64.2266L148.844 64.2734V71ZM182.453 64.8594C182.703 64.9375 182.953 64.9922 183.203 65.0234C183.453 65.0391 183.703 65.0469 183.953 65.0469C184.578 65.0469 185.18 64.9609 185.758 64.7891C186.336 64.6172 186.875 64.375 187.375 64.0625C187.891 63.7344 188.344 63.3438 188.734 62.8906C189.141 62.4219 189.469 61.9062 189.719 61.3438L194.406 66.0547C193.812 66.8984 193.125 67.6562 192.344 68.3281C191.578 69 190.742 69.5703 189.836 70.0391C188.945 70.5078 188 70.8594 187 71.0938C186.016 71.3438 185 71.4688 183.953 71.4688C182.188 71.4688 180.523 71.1406 178.961 70.4844C177.414 69.8281 176.055 68.9141 174.883 67.7422C173.727 66.5703 172.812 65.1797 172.141 63.5703C171.469 61.9453 171.133 60.1641 171.133 58.2266C171.133 56.2422 171.469 54.4297 172.141 52.7891C172.812 51.1484 173.727 49.75 174.883 48.5938C176.055 47.4375 177.414 46.5391 178.961 45.8984C180.523 45.2578 182.188 44.9375 183.953 44.9375C185 44.9375 186.023 45.0625 187.023 45.3125C188.023 45.5625 188.969 45.9219 189.859 46.3906C190.766 46.8594 191.609 47.4375 192.391 48.125C193.172 48.7969 193.859 49.5547 194.453 50.3984L182.453 64.8594ZM185.734 51.6641C185.438 51.5547 185.141 51.4844 184.844 51.4531C184.562 51.4219 184.266 51.4062 183.953 51.4062C183.078 51.4062 182.25 51.5703 181.469 51.8984C180.703 52.2109 180.031 52.6641 179.453 53.2578C178.891 53.8516 178.445 54.5703 178.117 55.4141C177.789 56.2422 177.625 57.1797 177.625 58.2266C177.625 58.4609 177.633 58.7266 177.648 59.0234C177.68 59.3203 177.719 59.625 177.766 59.9375C177.828 60.2344 177.898 60.5234 177.977 60.8047C178.055 61.0859 178.156 61.3359 178.281 61.5547L185.734 51.6641ZM204.133 80.5625H197.688V45.8984H199.234L201.789 48.9219C202.367 48.375 203 47.8594 203.688 47.375C204.375 46.8906 205.086 46.4766 205.82 46.1328C206.57 45.7734 207.344 45.4922 208.141 45.2891C208.938 45.0859 209.742 44.9844 210.555 44.9844C212.32 44.9844 213.977 45.3047 215.523 45.9453C217.086 46.5703 218.445 47.4609 219.602 48.6172C220.773 49.7734 221.695 51.1719 222.367 52.8125C223.039 54.4375 223.375 56.2422 223.375 58.2266C223.375 60.2891 223.039 62.1484 222.367 63.8047C221.695 65.4453 220.773 66.8438 219.602 68C218.445 69.1406 217.086 70.0156 215.523 70.625C213.977 71.2344 212.32 71.5391 210.555 71.5391C209.992 71.5391 209.43 71.4766 208.867 71.3516C208.32 71.2266 207.773 71.0625 207.227 70.8594C206.695 70.6406 206.164 70.3984 205.633 70.1328C205.117 69.8672 204.617 69.5938 204.133 69.3125V80.5625ZM216.953 58.2266C216.953 57.1641 216.781 56.2109 216.438 55.3672C216.109 54.5234 215.656 53.8125 215.078 53.2344C214.5 52.6406 213.82 52.1875 213.039 51.875C212.258 51.5625 211.43 51.4062 210.555 51.4062C209.68 51.4062 208.852 51.5625 208.07 51.875C207.305 52.1875 206.633 52.6406 206.055 53.2344C205.477 53.8125 205.016 54.5234 204.672 55.3672C204.344 56.2109 204.18 57.1641 204.18 58.2266C204.18 59.2422 204.344 60.1719 204.672 61.0156C205.016 61.8594 205.477 62.5781 206.055 63.1719C206.633 63.7656 207.305 64.2266 208.07 64.5547C208.852 64.8828 209.68 65.0469 210.555 65.0469C211.43 65.0469 212.258 64.8828 213.039 64.5547C213.82 64.2266 214.5 63.7656 215.078 63.1719C215.656 62.5781 216.109 61.8594 216.438 61.0156C216.781 60.1719 216.953 59.2422 216.953 58.2266ZM251.195 58.2266C251.195 60.1016 250.859 61.8516 250.188 63.4766C249.516 65.0859 248.602 66.4844 247.445 67.6719C246.289 68.8438 244.93 69.7734 243.367 70.4609C241.82 71.1328 240.156 71.4688 238.375 71.4688C236.609 71.4688 234.945 71.1328 233.383 70.4609C231.836 69.7734 230.477 68.8438 229.305 67.6719C228.148 66.4844 227.234 65.0859 226.562 63.4766C225.891 61.8516 225.555 60.1016 225.555 58.2266C225.555 56.3203 225.891 54.5547 226.562 52.9297C227.234 51.3047 228.148 49.9062 229.305 48.7344C230.477 47.5469 231.836 46.6172 233.383 45.9453C234.945 45.2734 236.609 44.9375 238.375 44.9375C240.156 44.9375 241.82 45.2578 243.367 45.8984C244.93 46.5234 246.289 47.4219 247.445 48.5938C248.602 49.75 249.516 51.1484 250.188 52.7891C250.859 54.4141 251.195 56.2266 251.195 58.2266ZM244.75 58.2266C244.75 57.1953 244.578 56.2656 244.234 55.4375C243.906 54.5938 243.453 53.875 242.875 53.2812C242.297 52.6719 241.617 52.2109 240.836 51.8984C240.07 51.5703 239.25 51.4062 238.375 51.4062C237.5 51.4062 236.672 51.5703 235.891 51.8984C235.125 52.2109 234.453 52.6719 233.875 53.2812C233.312 53.875 232.867 54.5938 232.539 55.4375C232.211 56.2656 232.047 57.1953 232.047 58.2266C232.047 59.1953 232.211 60.0938 232.539 60.9219C232.867 61.75 233.312 62.4688 233.875 63.0781C234.453 63.6875 235.125 64.1719 235.891 64.5312C236.672 64.875 237.5 65.0469 238.375 65.0469C239.25 65.0469 240.07 64.8828 240.836 64.5547C241.617 64.2266 242.297 63.7656 242.875 63.1719C243.453 62.5781 243.906 61.8594 244.234 61.0156C244.578 60.1719 244.75 59.2422 244.75 58.2266ZM268.516 71H253.891V64.625H268.516C268.953 64.625 269.328 64.4688 269.641 64.1562C269.953 63.8438 270.109 63.4688 270.109 63.0312C270.109 62.5781 269.953 62.2812 269.641 62.1406C269.328 62 268.953 61.9297 268.516 61.9297H261.859C260.75 61.9297 259.711 61.7188 258.742 61.2969C257.773 60.875 256.93 60.3047 256.211 59.5859C255.492 58.8516 254.922 58 254.5 57.0312C254.094 56.0625 253.891 55.0234 253.891 53.9141C253.891 52.8047 254.094 51.7656 254.5 50.7969C254.922 49.8281 255.492 48.9844 256.211 48.2656C256.93 47.5469 257.773 46.9844 258.742 46.5781C259.711 46.1562 260.75 45.9453 261.859 45.9453H274.82V52.3203H261.859C261.422 52.3203 261.047 52.4766 260.734 52.7891C260.422 53.1016 260.266 53.4766 260.266 53.9141C260.266 54.3672 260.422 54.7578 260.734 55.0859C261.047 55.3984 261.422 55.5547 261.859 55.5547H268.516C269.609 55.5547 270.641 55.7422 271.609 56.1172C272.578 56.4766 273.422 56.9844 274.141 57.6406C274.859 58.2969 275.43 59.0859 275.852 60.0078C276.273 60.9297 276.484 61.9375 276.484 63.0312C276.484 64.1406 276.273 65.1797 275.852 66.1484C275.43 67.1016 274.859 67.9453 274.141 68.6797C273.422 69.3984 272.578 69.9688 271.609 70.3906C270.641 70.7969 269.609 71 268.516 71ZM287.453 39.0781C287.453 39.6719 287.336 40.2266 287.102 40.7422C286.883 41.2578 286.578 41.7109 286.188 42.1016C285.797 42.4766 285.336 42.7812 284.805 43.0156C284.289 43.2344 283.734 43.3438 283.141 43.3438C282.547 43.3438 281.984 43.2344 281.453 43.0156C280.938 42.7812 280.484 42.4766 280.094 42.1016C279.719 41.7109 279.414 41.2578 279.18 40.7422C278.961 40.2266 278.852 39.6719 278.852 39.0781C278.852 38.5 278.961 37.9531 279.18 37.4375C279.414 36.9062 279.719 36.4531 280.094 36.0781C280.484 35.6875 280.938 35.3828 281.453 35.1641C281.984 34.9297 282.547 34.8125 283.141 34.8125C283.734 34.8125 284.289 34.9297 284.805 35.1641C285.336 35.3828 285.797 35.6875 286.188 36.0781C286.578 36.4531 286.883 36.9062 287.102 37.4375C287.336 37.9531 287.453 38.5 287.453 39.0781ZM286.352 71H279.906V45.8984H286.352V71ZM303.836 71C302.289 71 300.836 70.7109 299.477 70.1328C298.117 69.5391 296.922 68.7344 295.891 67.7188C294.875 66.6875 294.07 65.4922 293.477 64.1328C292.898 62.7734 292.609 61.3203 292.609 59.7734V52.3203H289.492V45.9453H292.609V35.9141H298.984V45.9453H308.688V52.3203H298.984V59.7734C298.984 60.4453 299.109 61.0781 299.359 61.6719C299.609 62.25 299.953 62.7578 300.391 63.1953C300.828 63.6328 301.344 63.9844 301.938 64.25C302.531 64.5 303.164 64.625 303.836 64.625H308.688V71H303.836ZM336.555 58.2266C336.555 60.1016 336.219 61.8516 335.547 63.4766C334.875 65.0859 333.961 66.4844 332.805 67.6719C331.648 68.8438 330.289 69.7734 328.727 70.4609C327.18 71.1328 325.516 71.4688 323.734 71.4688C321.969 71.4688 320.305 71.1328 318.742 70.4609C317.195 69.7734 315.836 68.8438 314.664 67.6719C313.508 66.4844 312.594 65.0859 311.922 63.4766C311.25 61.8516 310.914 60.1016 310.914 58.2266C310.914 56.3203 311.25 54.5547 311.922 52.9297C312.594 51.3047 313.508 49.9062 314.664 48.7344C315.836 47.5469 317.195 46.6172 318.742 45.9453C320.305 45.2734 321.969 44.9375 323.734 44.9375C325.516 44.9375 327.18 45.2578 328.727 45.8984C330.289 46.5234 331.648 47.4219 332.805 48.5938C333.961 49.75 334.875 51.1484 335.547 52.7891C336.219 54.4141 336.555 56.2266 336.555 58.2266ZM330.109 58.2266C330.109 57.1953 329.938 56.2656 329.594 55.4375C329.266 54.5938 328.812 53.875 328.234 53.2812C327.656 52.6719 326.977 52.2109 326.195 51.8984C325.43 51.5703 324.609 51.4062 323.734 51.4062C322.859 51.4062 322.031 51.5703 321.25 51.8984C320.484 52.2109 319.812 52.6719 319.234 53.2812C318.672 53.875 318.227 54.5938 317.898 55.4375C317.57 56.2656 317.406 57.1953 317.406 58.2266C317.406 59.1953 317.57 60.0938 317.898 60.9219C318.227 61.75 318.672 62.4688 319.234 63.0781C319.812 63.6875 320.484 64.1719 321.25 64.5312C322.031 64.875 322.859 65.0469 323.734 65.0469C324.609 65.0469 325.43 64.8828 326.195 64.5547C326.977 64.2266 327.656 63.7656 328.234 63.1719C328.812 62.5781 329.266 61.8594 329.594 61.0156C329.938 60.1719 330.109 59.2422 330.109 58.2266ZM346.492 71H340.094V45.8984H341.641L343.75 48.875C344.781 47.9375 345.953 47.2188 347.266 46.7188C348.578 46.2031 349.938 45.9453 351.344 45.9453H356.992V52.3203H351.344C350.672 52.3203 350.039 52.4453 349.445 52.6953C348.852 52.9453 348.336 53.2891 347.898 53.7266C347.461 54.1641 347.117 54.6797 346.867 55.2734C346.617 55.8672 346.492 56.5 346.492 57.1719V71ZM367.516 39.0781C367.516 39.6719 367.398 40.2266 367.164 40.7422C366.945 41.2578 366.641 41.7109 366.25 42.1016C365.859 42.4766 365.398 42.7812 364.867 43.0156C364.352 43.2344 363.797 43.3438 363.203 43.3438C362.609 43.3438 362.047 43.2344 361.516 43.0156C361 42.7812 360.547 42.4766 360.156 42.1016C359.781 41.7109 359.477 41.2578 359.242 40.7422C359.023 40.2266 358.914 39.6719 358.914 39.0781C358.914 38.5 359.023 37.9531 359.242 37.4375C359.477 36.9062 359.781 36.4531 360.156 36.0781C360.547 35.6875 361 35.3828 361.516 35.1641C362.047 34.9297 362.609 34.8125 363.203 34.8125C363.797 34.8125 364.352 34.9297 364.867 35.1641C365.398 35.3828 365.859 35.6875 366.25 36.0781C366.641 36.4531 366.945 36.9062 367.164 37.4375C367.398 37.9531 367.516 38.5 367.516 39.0781ZM366.414 71H359.969V45.8984H366.414V71ZM381.297 64.8594C381.547 64.9375 381.797 64.9922 382.047 65.0234C382.297 65.0391 382.547 65.0469 382.797 65.0469C383.422 65.0469 384.023 64.9609 384.602 64.7891C385.18 64.6172 385.719 64.375 386.219 64.0625C386.734 63.7344 387.188 63.3438 387.578 62.8906C387.984 62.4219 388.312 61.9062 388.562 61.3438L393.25 66.0547C392.656 66.8984 391.969 67.6562 391.188 68.3281C390.422 69 389.586 69.5703 388.68 70.0391C387.789 70.5078 386.844 70.8594 385.844 71.0938C384.859 71.3438 383.844 71.4688 382.797 71.4688C381.031 71.4688 379.367 71.1406 377.805 70.4844C376.258 69.8281 374.898 68.9141 373.727 67.7422C372.57 66.5703 371.656 65.1797 370.984 63.5703C370.312 61.9453 369.977 60.1641 369.977 58.2266C369.977 56.2422 370.312 54.4297 370.984 52.7891C371.656 51.1484 372.57 49.75 373.727 48.5938C374.898 47.4375 376.258 46.5391 377.805 45.8984C379.367 45.2578 381.031 44.9375 382.797 44.9375C383.844 44.9375 384.867 45.0625 385.867 45.3125C386.867 45.5625 387.812 45.9219 388.703 46.3906C389.609 46.8594 390.453 47.4375 391.234 48.125C392.016 48.7969 392.703 49.5547 393.297 50.3984L381.297 64.8594ZM384.578 51.6641C384.281 51.5547 383.984 51.4844 383.688 51.4531C383.406 51.4219 383.109 51.4062 382.797 51.4062C381.922 51.4062 381.094 51.5703 380.312 51.8984C379.547 52.2109 378.875 52.6641 378.297 53.2578C377.734 53.8516 377.289 54.5703 376.961 55.4141C376.633 56.2422 376.469 57.1797 376.469 58.2266C376.469 58.4609 376.477 58.7266 376.492 59.0234C376.523 59.3203 376.562 59.625 376.609 59.9375C376.672 60.2344 376.742 60.5234 376.82 60.8047C376.898 61.0859 377 61.3359 377.125 61.5547L384.578 51.6641ZM410.312 71H395.688V64.625H410.312C410.75 64.625 411.125 64.4688 411.438 64.1562C411.75 63.8438 411.906 63.4688 411.906 63.0312C411.906 62.5781 411.75 62.2812 411.438 62.1406C411.125 62 410.75 61.9297 410.312 61.9297H403.656C402.547 61.9297 401.508 61.7188 400.539 61.2969C399.57 60.875 398.727 60.3047 398.008 59.5859C397.289 58.8516 396.719 58 396.297 57.0312C395.891 56.0625 395.688 55.0234 395.688 53.9141C395.688 52.8047 395.891 51.7656 396.297 50.7969C396.719 49.8281 397.289 48.9844 398.008 48.2656C398.727 47.5469 399.57 46.9844 400.539 46.5781C401.508 46.1562 402.547 45.9453 403.656 45.9453H416.617V52.3203H403.656C403.219 52.3203 402.844 52.4766 402.531 52.7891C402.219 53.1016 402.062 53.4766 402.062 53.9141C402.062 54.3672 402.219 54.7578 402.531 55.0859C402.844 55.3984 403.219 55.5547 403.656 55.5547H410.312C411.406 55.5547 412.438 55.7422 413.406 56.1172C414.375 56.4766 415.219 56.9844 415.938 57.6406C416.656 58.2969 417.227 59.0859 417.648 60.0078C418.07 60.9297 418.281 61.9375 418.281 63.0312C418.281 64.1406 418.07 65.1797 417.648 66.1484C417.227 67.1016 416.656 67.9453 415.938 68.6797C415.219 69.3984 414.375 69.9688 413.406 70.3906C412.438 70.7969 411.406 71 410.312 71Z" fill="#333333"/>
<path d="M54.4932 1.13449C24.4024 1.13449 0 25.6322 0 55.8525C0 80.0232 15.6143 100.529 37.278 107.771C40.003 108.275 40.9976 106.585 40.9976 105.134C40.9976 103.833 40.9499 100.393 40.9227 95.8283C25.7649 99.1323 22.563 88.4912 22.563 88.4912C20.0901 82.1692 16.5135 80.4865 16.5135 80.4865C11.5608 77.0939 16.8814 77.162 16.8814 77.162C22.3518 77.5503 25.2267 82.8027 25.2267 82.8027C30.0908 91.1617 37.9865 88.7501 41.093 87.3467C41.5835 83.811 42.9937 81.3994 44.5537 80.0301C32.4548 78.6471 19.729 73.9533 19.729 52.9912C19.729 47.0167 21.8545 42.1321 25.3425 38.3035C24.7771 36.9206 22.9104 31.3547 25.8739 23.8269C25.8739 23.8269 30.4519 22.3554 40.8614 29.4336C45.2078 28.221 49.8675 27.6147 54.5068 27.5942C59.1325 27.6215 63.7991 28.221 68.1522 29.4404C78.5549 22.3622 83.1261 23.8337 83.1261 23.8337C86.0964 31.3684 84.2297 36.9274 83.6711 38.3103C87.1659 42.1389 89.271 47.0235 89.271 52.9981C89.271 74.0146 76.5316 78.6403 64.3917 79.996C66.3469 81.6855 68.0909 85.0236 68.0909 90.1262C68.0909 97.4428 68.0228 103.342 68.0228 105.134C68.0228 106.599 69.0038 108.302 71.7697 107.764C93.3994 100.515 109 80.0164 109 55.8525C109 25.6322 84.5976 1.13449 54.4932 1.13449Z" fill="#333333"/>
</svg>
